<svg preserveAspectRatio="none" width="100%" height="100%" overflow="visible" style="display: block;" viewBox="0 0 20 20" fill="none" xmlns="http://www.w3.org/2000/svg">
<g id="Frame 1171277053">
<path id="Union" d="M10 0C11.3807 6.03528e-08 12.5 1.11929 12.5 2.5V7.5H17.5C18.8807 7.5 20 8.61929 20 10C20 11.3807 18.8807 12.5 17.5 12.5H12.5V17.5C12.5 18.8807 11.3807 20 10 20C8.61929 20 7.5 18.8807 7.5 17.5V12.5H2.5C1.11929 12.5 0 11.3807 0 10C0 8.61929 1.11929 7.5 2.5 7.5H7.5V2.5C7.5 1.11929 8.61929 -6.03528e-08 10 0Z" fill="var(--fill-0, #A7A7A8)"/>
<circle id="Ellipse 337" cx="10" cy="2" r="1" fill="var(--fill-0, #242424)"/>
</g>
</svg>
