<svg preserveAspectRatio="xMidYMid meet" width="100%" height="100%" overflow="visible" style="display: block;" viewBox="0 0 19.6012 16" fill="none" xmlns="http://www.w3.org/2000/svg">
<g id="Vector">
<path d="M14.076 0C16.6991 0 18.8763 2.02713 19.0633 4.64355L19.5916 12.041C19.7444 14.1803 18.0499 16 15.9051 16C14.2093 15.9999 12.7314 14.8453 12.3201 13.2002L12.0809 12.2422C12.0451 12.0998 11.9162 12 11.7693 12H7.83184C7.68499 12 7.55603 12.0998 7.52032 12.2422L7.28106 13.2002C6.86977 14.8453 5.39184 15.9999 3.6961 16C1.55131 16 -0.143181 14.1803 0.00957506 12.041L0.537895 4.64355C0.724894 2.02713 2.90208 0 5.5252 0H14.076ZM5.5252 2C3.95133 2 2.64522 3.21629 2.53301 4.78613L2.00469 12.1836C1.93467 13.1652 2.71202 14 3.6961 14C4.47398 13.9999 5.1518 13.4704 5.34063 12.7158L5.58086 11.7578C5.83908 10.7249 6.76718 10 7.83184 10H11.7693C12.834 10 13.7621 10.7249 14.0203 11.7578L14.2606 12.7158C14.4494 13.4704 15.1272 13.9999 15.9051 14C16.8892 14 17.6665 13.1652 17.5965 12.1836L17.0682 4.78613C16.956 3.21629 15.6498 2 14.076 2H5.5252Z" fill="var(--fill-0, #A7A7A8)"/>
<path d="M7.80059 6C7.80059 7.10457 6.90516 8 5.80059 8C4.69602 8 3.80059 7.10457 3.80059 6C3.80059 4.89543 4.69602 4 5.80059 4C6.90516 4 7.80059 4.89543 7.80059 6Z" fill="var(--fill-0, #A7A7A8)"/>
<path d="M12.3006 7.5V7H11.8006C11.2483 7 10.8006 6.55228 10.8006 6C10.8006 5.44772 11.2483 5 11.8006 5H12.3006V4.5C12.3006 3.94772 12.7483 3.5 13.3006 3.5C13.8529 3.5 14.3006 3.94772 14.3006 4.5V5H14.8006C15.3529 5 15.8006 5.44772 15.8006 6C15.8006 6.55228 15.3529 7 14.8006 7H14.3006V7.5C14.3006 8.05228 13.8529 8.5 13.3006 8.5C12.7483 8.5 12.3006 8.05228 12.3006 7.5Z" fill="var(--fill-0, #A7A7A8)"/>
</g>
</svg>
