<svg preserveAspectRatio="none" width="100%" height="100%" overflow="visible" style="display: block;" viewBox="0 0 2.99999 3" fill="none" xmlns="http://www.w3.org/2000/svg">
<path id="Path" fill-rule="evenodd" clip-rule="evenodd" d="M1.49999 0.5C1.30199 0.5 1.10899 0.56 0.943989 0.67C0.779989 0.78 0.651989 0.93 0.575989 1.12C0.499989 1.3 0.480989 1.5 0.518989 1.7C0.557989 1.89 0.652989 2.07 0.792989 2.21C0.932989 2.35 1.11099 2.44 1.30499 2.48C1.49899 2.52 1.69999 2.5 1.88299 2.42C2.06499 2.35 2.22199 2.22 2.33099 2.06C2.44099 1.89 2.49999 1.7 2.49999 1.5C2.49999 1.23 2.39499 0.98 2.20699 0.79C2.01999 0.61 1.76499 0.5 1.49999 0.5Z" fill="var(--fill-0, #A7A7A8)" stroke="var(--stroke-0, #A7A7A8)"/>
</svg>
