<svg preserveAspectRatio="none" width="100%" height="100%" overflow="visible" style="display: block;" viewBox="0 0 24 24" fill="none" xmlns="http://www.w3.org/2000/svg">
<g id="Profile">
<g id="Vector">
<path fill-rule="evenodd" clip-rule="evenodd" d="M19 6H5C4.44772 6 4 6.44772 4 7V17C4 17.5523 4.44772 18 5 18H19C19.5523 18 20 17.5523 20 17V7C20 6.44771 19.5523 6 19 6ZM5 4C3.34315 4 2 5.34315 2 7V17C2 18.6569 3.34315 20 5 20H19C20.6569 20 22 18.6569 22 17V7C22 5.34315 20.6569 4 19 4H5Z" fill="var(--fill-0, #00B6FA)"/>
<path fill-rule="evenodd" clip-rule="evenodd" d="M19 6H5C4.44772 6 4 6.44772 4 7V17C4 17.5523 4.44772 18 5 18H19C19.5523 18 20 17.5523 20 17V7C20 6.44771 19.5523 6 19 6ZM5 4C3.34315 4 2 5.34315 2 7V17C2 18.6569 3.34315 20 5 20H19C20.6569 20 22 18.6569 22 17V7C22 5.34315 20.6569 4 19 4H5Z" fill="var(--fill-1, #8E8E8F)"/>
</g>
<path id="Vector 86" d="M7 15C11 15.5 18 15.7 18 8.5" stroke="var(--stroke-0, #8E8E8F)" stroke-width="2" stroke-linecap="round"/>
</g>
</svg>
