<svg preserveAspectRatio="none" width="100%" height="100%" overflow="visible" style="display: block;" viewBox="0 0 18 20" fill="none" xmlns="http://www.w3.org/2000/svg">
<path id="Vector" d="M2 16V18H16V16H2ZM8 2V10H10V2H8ZM12 10C12 11.1046 11.1046 12 10 12V14H16C17.1046 14 18 14.8954 18 16V18C18 19.1046 17.1046 20 16 20H2C0.895431 20 0 19.1046 0 18V16C0 14.8954 0.895431 14 2 14H8V12C6.89543 12 6 11.1046 6 10V2C6 0.895431 6.89543 0 8 0H10C11.1046 0 12 0.895431 12 2V10Z" fill="var(--fill-0, #A7A7A8)"/>
</svg>
