<svg preserveAspectRatio="none" width="100%" height="100%" overflow="visible" style="display: block;" viewBox="0 0 18.001 18.0003" fill="none" xmlns="http://www.w3.org/2000/svg">
<path id="Vector" d="M15.0005 8.99977C15.447 8.99977 15.8397 9.29605 15.9624 9.72535L17.9624 16.7254C18.1139 17.2563 17.8058 17.81 17.2749 17.9617C16.744 18.1131 16.1903 17.8051 16.0386 17.2742L14.2456 10.9998H3.75537L1.9624 17.2742C1.81072 17.8051 1.25699 18.1131 0.726077 17.9617C0.195171 17.81 -0.112888 17.2563 0.0385767 16.7254L2.03858 9.72535L2.09717 9.57105C2.26048 9.2266 2.60969 8.99977 3.00049 8.99977H15.0005ZM13.0005 15.9998C13.5528 15.9998 14.0005 16.4475 14.0005 16.9998C14.0005 17.5521 13.5528 17.9998 13.0005 17.9998H5.00049C4.44821 17.9998 4.00049 17.5521 4.00049 16.9998C4.00049 16.4475 4.44821 15.9998 5.00049 15.9998H13.0005ZM8.00049 6.99977V3.41383L6.70752 4.7068C6.317 5.09732 5.68398 5.09732 5.29346 4.7068C4.90294 4.31627 4.90294 3.68326 5.29346 3.29273L8.29346 0.292734L8.36963 0.224375C8.76241 -0.0959754 9.34141 -0.0733816 9.70752 0.292734L12.7075 3.29273C13.098 3.68326 13.098 4.31627 12.7075 4.7068C12.317 5.09732 11.684 5.09732 11.2935 4.7068L10.0005 3.41383V6.99977C10.0005 7.55205 9.55278 7.99977 9.00049 7.99977C8.44821 7.99977 8.00049 7.55205 8.00049 6.99977Z" fill="var(--fill-0, #A7A7A8)"/>
</svg>
