<svg preserveAspectRatio="none" width="100%" height="100%" overflow="visible" style="display: block;" viewBox="0 0 20 20" fill="none" xmlns="http://www.w3.org/2000/svg">
<g id="Vector">
<path d="M18 10C18 5.58172 14.4183 2 10 2C5.58172 2 2 5.58172 2 10C2 14.4183 5.58172 18 10 18C14.4183 18 18 14.4183 18 10ZM20 10C20 15.5228 15.5228 20 10 20C4.47715 20 0 15.5228 0 10C0 4.47715 4.47715 0 10 0C15.5228 0 20 4.47715 20 10Z" fill="var(--fill-0, #8E8E8F)"/>
<path d="M10 8C10.5523 8 11 8.44772 11 9V14C11.5523 14 12 14.4477 12 15C12 15.5523 11.5523 16 11 16H9C8.44772 16 8 15.5523 8 15C8 14.4477 8.44772 14 9 14V10C8.44772 10 8 9.55228 8 9C8 8.44772 8.44772 8 9 8H10Z" fill="var(--fill-0, #8E8E8F)"/>
<path d="M9 5C9 4.44772 9.44772 4 10 4C10.5523 4 11 4.44772 11 5C11 5.55228 10.5523 6 10 6C9.44772 6 9 5.55228 9 5Z" fill="var(--fill-0, #8E8E8F)"/>
</g>
</svg>
