<svg preserveAspectRatio="xMidYMid meet" width="100%" height="100%" overflow="visible" style="display: block;" viewBox="0 0 20 20" fill="none" xmlns="http://www.w3.org/2000/svg">
<path id=" &#226;&#134;&#179;Color" fill-rule="evenodd" clip-rule="evenodd" d="M15 0H5C3.674 0 2.402 0.53 1.464 1.46C0.527 2.4 0 3.67 0 5V15C0 16.33 0.527 17.6 1.464 18.54C2.402 19.47 3.674 20 5 20H15C16.326 20 17.598 19.47 18.536 18.54C19.473 17.6 20 16.33 20 15V5C20 3.67 19.473 2.4 18.536 1.46C17.598 0.53 16.326 0 15 0ZM18 15C18 15.8 17.684 16.56 17.121 17.12C16.559 17.68 15.796 18 15 18H5C4.204 18 3.441 17.68 2.879 17.12C2.316 16.56 2 15.8 2 15V5C2 4.2 2.316 3.44 2.879 2.88C3.441 2.32 4.204 2 5 2H15C15.796 2 16.559 2.32 17.121 2.88C17.684 3.44 18 4.2 18 5V15ZM9.99975 4.76235C9.44074 4.76276 8.98738 5.21612 8.98697 5.77512L8.98737 8.98737L5.77512 8.98697C5.21612 8.98738 4.76276 9.44074 4.76235 9.99975C4.76272 10.5594 5.21605 11.0127 5.77498 11.0124L8.98729 11.0127L8.98762 14.225C8.98728 14.784 9.4406 15.2373 10.0003 15.2377C10.5593 15.2372 11.0126 14.7839 11.013 14.2249L11.0126 11.0126L14.2249 11.013C14.7839 11.0126 15.2372 10.5593 15.2377 10.0003C15.2373 9.4406 14.784 8.98728 14.225 8.98762L11.0127 8.98729L11.0124 5.77498C11.0127 5.21605 10.5594 4.76272 9.99975 4.76235Z" fill="var(--fill-0, #A7A7A8)"/>
</svg>
