<svg preserveAspectRatio="none" width="100%" height="100%" overflow="visible" style="display: block;" viewBox="0 0 9 18" fill="none" xmlns="http://www.w3.org/2000/svg">
<path id=" &#226;&#134;&#179;Color" fill-rule="evenodd" clip-rule="evenodd" d="M3 0H6C6.552 0 7 0.44772 7 1C7 1.55228 6.552 2 6 2H3C2.448 2 2 1.55228 2 1C2 0.44772 2.448 0 3 0ZM7.714 3H1.286C0.576 3 0 3.5166 0 4.1538V10V16V16.8462C0 17.4834 0.576 18 1.286 18H7.714C8.424 18 9 17.4834 9 16.8462V16V10V4.1538C9 3.5166 8.424 3 7.714 3ZM7 10V5H2V10H7Z" fill="var(--fill-0, #2DBA3E)"/>
</svg>
