<svg preserveAspectRatio="none" width="100%" height="100%" overflow="visible" style="display: block;" viewBox="0 0 20.0005 20.0003" fill="none" xmlns="http://www.w3.org/2000/svg">
<g id="Vector">
<path d="M12.8642 5.24264C13.2547 5.63317 13.8879 5.63317 14.2784 5.24264C14.6689 4.85212 14.6689 4.21895 14.2784 3.82843L10.7429 0.292893C10.3523 -0.097631 9.71917 -0.0976311 9.32865 0.292893L5.79312 3.82843C5.40259 4.21895 5.40259 4.85212 5.79312 5.24264C6.18364 5.63316 6.81681 5.63316 7.20733 5.24264L9.07129 3.37868L9.07129 6.99998C9.07129 7.55227 9.519 7.99998 10.0713 7.99998C10.6236 7.99998 11.0713 7.55227 11.0713 6.99998L11.0713 3.44975L12.8642 5.24264Z" fill="var(--fill-0, #A7A7A8)"/>
<path d="M3.25026 10C2.80224 10 2.4089 10.298 2.2876 10.7293L0.0376044 18.7293C-0.111924 19.2609 0.197852 19.8131 0.72951 19.9627C1.26117 20.1122 1.81338 19.8024 1.96291 19.2708L4.0078 12H15.9927L18.0376 19.2708C18.1871 19.8024 18.7393 20.1122 19.271 19.9627C19.8027 19.8131 20.1124 19.2609 19.9629 18.7293L17.7129 10.7293C17.5916 10.298 17.1983 10 16.7503 10H3.25026Z" fill="var(--fill-0, #A7A7A8)"/>
<path d="M15.0002 20C15.5525 20 16.0002 19.5523 16.0002 19C16.0002 18.4477 15.5525 18 15.0002 18H5.00024C4.44796 18 4.00024 18.4477 4.00024 19C4.00024 19.5523 4.44796 20 5.00024 20H15.0002Z" fill="var(--fill-0, #A7A7A8)"/>
</g>
</svg>
