<svg preserveAspectRatio="none" width="100%" height="100%" overflow="visible" style="display: block;" viewBox="0 0 24 24" fill="none" xmlns="http://www.w3.org/2000/svg">
<g id="Function icons/View(Cards)">
<g id="Vector">
<path d="M13.0607 6.6967C13.6464 6.11091 13.6464 5.16117 13.0607 4.57538C12.4749 3.98959 11.5251 3.98959 10.9393 4.57538C10.3536 5.16117 10.3536 6.11091 10.9393 6.6967C11.5251 7.28249 12.4749 7.28249 13.0607 6.6967ZM14.4749 8.11091C13.108 9.47775 10.892 9.47775 9.52513 8.11091C8.15829 6.74408 8.15829 4.528 9.52513 3.16117C10.892 1.79433 13.108 1.79433 14.4749 3.16117C15.8417 4.528 15.8417 6.74408 14.4749 8.11091Z" fill="var(--fill-0, #A7A7A8)"/>
<path d="M6.6967 13.0607C7.28249 12.4749 7.28249 11.5251 6.6967 10.9393C6.11091 10.3536 5.16117 10.3536 4.57538 10.9393C3.98959 11.5251 3.98959 12.4749 4.57538 13.0607C5.16117 13.6464 6.11091 13.6464 6.6967 13.0607ZM8.11091 14.4749C6.74408 15.8417 4.528 15.8417 3.16117 14.4749C1.79433 13.108 1.79433 10.892 3.16117 9.52513C4.528 8.15829 6.74408 8.15829 8.11091 9.52513C9.47775 10.892 9.47775 13.108 8.11091 14.4749Z" fill="var(--fill-0, #A7A7A8)"/>
<path d="M19.4246 13.0607C20.0104 12.4749 20.0104 11.5251 19.4246 10.9393C18.8388 10.3536 17.8891 10.3536 17.3033 10.9393C16.7175 11.5251 16.7175 12.4749 17.3033 13.0607C17.8891 13.6464 18.8388 13.6464 19.4246 13.0607ZM20.8388 14.4749C19.472 15.8417 17.2559 15.8417 15.8891 14.4749C14.5223 13.108 14.5223 10.892 15.8891 9.52513C17.2559 8.15829 19.472 8.15829 20.8388 9.52513C22.2057 10.892 22.2057 13.108 20.8388 14.4749Z" fill="var(--fill-0, #A7A7A8)"/>
<path d="M13.0607 19.4246C13.6464 18.8388 13.6464 17.8891 13.0607 17.3033C12.4749 16.7175 11.5251 16.7175 10.9393 17.3033C10.3536 17.8891 10.3536 18.8388 10.9393 19.4246C11.5251 20.0104 12.4749 20.0104 13.0607 19.4246ZM14.4749 20.8388C13.108 22.2057 10.892 22.2057 9.52513 20.8388C8.15829 19.472 8.15829 17.2559 9.52513 15.8891C10.892 14.5223 13.108 14.5223 14.4749 15.8891C15.8417 17.2559 15.8417 19.472 14.4749 20.8388Z" fill="var(--fill-0, #A7A7A8)"/>
</g>
<circle id="Ellipse 338" cx="12" cy="18" r="2" fill="var(--fill-0, #A7A7A8)"/>
</g>
</svg>
