<svg preserveAspectRatio="none" width="100%" height="100%" overflow="visible" style="display: block;" viewBox="0 0 8 8" fill="none" xmlns="http://www.w3.org/2000/svg">
<path id="Vector" fill-rule="evenodd" clip-rule="evenodd" d="M0.29624 0.296599C-0.0987467 0.692166 -0.0987467 1.33332 0.29624 1.72888L2.56792 4L0.29624 6.27112C-0.0987467 6.66668 -0.0987467 7.30783 0.29624 7.7034C0.69224 8.09887 1.33333 8.09887 1.72832 7.7034L4 5.43218L6.27168 7.7034C6.66667 8.09887 7.30776 8.09887 7.70376 7.7034C8.09875 7.30783 8.09875 6.66668 7.70376 6.27112L5.43208 4L7.70376 1.72888C8.09875 1.33332 8.09875 0.692166 7.70376 0.296599C7.30776 -0.0988664 6.66667 -0.0988664 6.27168 0.296599L4 2.56782L1.72832 0.296599C1.33333 -0.0988664 0.69224 -0.0988664 0.29624 0.296599Z" fill="var(--fill-0, #A7A7A8)"/>
</svg>
