<svg preserveAspectRatio="none" width="100%" height="100%" overflow="visible" style="display: block;" viewBox="0 0 20 20" fill="none" xmlns="http://www.w3.org/2000/svg">
<g id="Vector">
<path d="M11 0C11.4246 0 11.8027 0.268312 11.9434 0.668945L12.5498 2.39746L13.5713 2.82031L15.2236 2.02734C15.6064 1.84342 16.064 1.9214 16.3643 2.22168L17.7783 3.63574C18.0785 3.9359 18.1563 4.3927 17.9727 4.77539L17.1787 6.42676L17.6025 7.44922L19.3311 8.05664C19.7317 8.19728 20 8.5754 20 9V11C20 11.4246 19.7317 11.8027 19.3311 11.9434L17.6025 12.5498L17.1787 13.5723L17.9727 15.2246C18.1563 15.6073 18.0785 16.0641 17.7783 16.3643L16.3643 17.7783C16.064 18.0786 15.6064 18.1566 15.2236 17.9727L13.5713 17.1787L12.5498 17.6016L11.9434 19.3311C11.8027 19.7317 11.4246 20 11 20H9C8.5754 20 8.19728 19.7317 8.05664 19.3311L7.44922 17.6025L6.42676 17.1787L4.77637 17.9727C4.3938 18.1563 3.9369 18.0783 3.63672 17.7783L2.22168 16.3643C1.92141 16.064 1.84342 15.6064 2.02734 15.2236L2.82031 13.5713L2.39746 12.5498L0.668945 11.9434C0.268312 11.8027 0 11.4246 0 11V9C0 8.5754 0.268312 8.19728 0.668945 8.05664L2.39746 7.44922L2.82031 6.42773L2.02734 4.77637C1.84342 4.3936 1.92141 3.93601 2.22168 3.63574L3.63672 2.22168L3.75684 2.11914C4.05055 1.90607 4.44178 1.86676 4.77637 2.02734L6.42676 2.82031L7.44922 2.39648L8.05664 0.668945L8.12012 0.525391C8.29251 0.205544 8.62838 0 9 0H11ZM9.18848 3.48145C9.0943 3.74972 8.89058 3.96538 8.62793 4.07422L6.78027 4.83887C6.51772 4.94752 6.22101 4.93935 5.96484 4.81641L4.54883 4.13574L4.13672 4.54785L4.81738 5.96387C4.94058 6.22026 4.94874 6.51748 4.83984 6.78027L4.07422 8.62793C3.96538 8.89059 3.74971 9.0943 3.48145 9.18848L2 9.70801V10.291L3.48145 10.8115L3.58008 10.8516C3.80238 10.9573 3.97903 11.1424 4.07422 11.3721L4.83984 13.2197C4.94874 13.4825 4.94058 13.7797 4.81738 14.0361L4.13672 15.4512L4.54883 15.8633L5.96484 15.1836L6.0625 15.1426C6.29443 15.0601 6.55053 15.0661 6.78027 15.1611L8.62793 15.9258L8.72363 15.9717C8.93984 16.0895 9.10609 16.2839 9.18848 16.5186L9.70898 18H10.291L10.8115 16.5186L10.8516 16.4199C10.9573 16.1976 11.1424 16.021 11.3721 15.9258L13.2197 15.1602C13.4825 15.0513 13.7797 15.0594 14.0361 15.1826L15.4512 15.8623L15.8633 15.4502L15.1836 14.0352C15.0606 13.779 15.0525 13.4823 15.1611 13.2197L15.9258 11.3721L15.9717 11.2764C16.0895 11.0602 16.2839 10.8939 16.5186 10.8115L18 10.291V9.70801L16.5186 9.18848C16.2503 9.0943 16.0346 8.89058 15.9258 8.62793L15.1611 6.78027C15.0525 6.51772 15.0606 6.22101 15.1836 5.96484L15.8633 4.54883L15.4512 4.13672L14.0361 4.81738C13.7797 4.94058 13.4825 4.94874 13.2197 4.83984L11.3721 4.07422C11.1094 3.96538 10.9057 3.74971 10.8115 3.48145L10.291 2H9.70898L9.18848 3.48145Z" fill="var(--fill-0, #A7A7A8)"/>
<path d="M12 10C12 8.89543 11.1046 8 10 8C8.89543 8 8 8.89543 8 10C8 11.1046 8.89543 12 10 12C11.1046 12 12 11.1046 12 10ZM14 10C14 12.2091 12.2091 14 10 14C7.79086 14 6 12.2091 6 10C6 7.79086 7.79086 6 10 6C12.2091 6 14 7.79086 14 10Z" fill="var(--fill-0, #A7A7A8)"/>
</g>
</svg>
