<svg preserveAspectRatio="none" width="100%" height="100%" overflow="visible" style="display: block;" viewBox="0 0 18.8889 20" fill="none" xmlns="http://www.w3.org/2000/svg">
<path id="Vector" fill-rule="evenodd" clip-rule="evenodd" d="M10.0199 4.77047e-05C10.0199 1.38338 10.0216 2.76839 10.0199 4.15168C8.19061 4.1689 6.37678 5.05089 5.30842 6.55304C3.96007 8.37043 3.82266 10.9854 4.97691 12.9337C5.97829 14.7253 7.98449 15.8381 10.0199 15.8484C10.0216 17.2317 10.0216 18.6167 10.0199 20C7.63409 20.0017 5.26204 19.1266 3.46196 17.5556C1.33553 15.7347 0.0284092 12.9819 0.00264474 10.1723C-0.0591901 7.57112 0.966238 4.9751 2.76632 3.10431C4.62995 1.13532 7.31289 -0.00851231 10.0199 4.77047e-05ZM18.8885 7.74143C18.8885 10.7319 18.8902 13.7224 18.8867 16.7112C17.5178 16.7095 16.1471 16.7095 14.7782 16.7112C14.7747 15.1006 14.7782 13.4882 14.7764 11.8775C13.1739 11.8758 11.5713 11.8758 9.96878 11.8775C9.96535 10.4994 9.96706 9.11954 9.96706 7.74143H18.8885Z" fill="var(--fill-0, #00B6FA)"/>
</svg>
