<svg preserveAspectRatio="none" overflow="visible" style="display: block;" width="12" height="10.6667" viewBox="0 0 12 10.6667" fill="none" xmlns="http://www.w3.org/2000/svg">
<g id="Vector">
<path d="M10.5108 1.4918C10.2502 1.23021 9.94074 1.0227 9.60015 0.881117C9.25955 0.739538 8.89448 0.666667 8.5258 0.666667C8.15713 0.666667 7.79206 0.739538 7.45146 0.881117C7.11086 1.0227 6.80141 1.23021 6.54077 1.4918L5.99986 2.03444L5.45896 1.4918C4.93249 0.963652 4.21846 0.66694 3.47392 0.66694C2.72939 0.66694 2.01536 0.963652 1.48889 1.4918C0.962431 2.01995 0.666667 2.73627 0.666667 3.48319C0.666667 4.23011 0.962431 4.94643 1.48889 5.47458L5.99986 10L10.5108 5.47458C10.7716 5.21311 10.9784 4.90266 11.1196 4.56098C11.2607 4.21929 11.3333 3.85305 11.3333 3.48319C11.3333 3.11333 11.2607 2.7471 11.1196 2.40541C10.9784 2.06372 10.7716 1.75327 10.5108 1.4918Z" fill="#00B8FC"/>
<path d="M10.6667 3.48307C10.6667 3.20059 10.611 2.92102 10.5033 2.66016C10.3955 2.39922 10.238 2.1617 10.0391 1.96224C9.8403 1.76278 9.60383 1.60461 9.3444 1.49674C9.08494 1.38889 8.80677 1.33336 8.52604 1.33333C8.24523 1.33333 7.96657 1.38886 7.70703 1.49674C7.48004 1.59114 7.27102 1.72396 7.08919 1.88932L7.01302 1.96224L6.47201 2.50521C6.34696 2.63062 6.1771 2.70114 6 2.70117C5.82292 2.70117 5.65306 2.63057 5.52799 2.50521L4.98698 1.96224C4.58538 1.55937 4.04097 1.33334 3.47396 1.33333C2.90695 1.33333 2.36254 1.55938 1.96094 1.96224C1.55929 2.36517 1.33336 2.91232 1.33333 3.48307C1.33333 4.05383 1.5593 4.60095 1.96094 5.00391L6 9.05534L10.0384 5.00391C10.2372 4.80451 10.3955 4.56746 10.5033 4.30664C10.611 4.0457 10.6667 3.76565 10.6667 3.48307ZM12 3.48307C12 3.94021 11.9102 4.39332 11.7357 4.81576C11.5831 5.18518 11.3682 5.52513 11.1009 5.82096L10.9831 5.94531L6.47201 10.4707C6.34696 10.5961 6.17711 10.6666 6 10.6667C5.8229 10.6667 5.65306 10.5961 5.52799 10.4707L1.01693 5.94531C0.365677 5.29198 0 4.40611 0 3.48307C3.1047e-05 2.56008 0.365705 1.67414 1.01693 1.02083C1.66822 0.367584 2.55205 3.97313e-08 3.47396 0C4.39587 9.03566e-06 5.2797 0.367571 5.93099 1.02083L5.99935 1.08919L6.06836 1.02083C6.39071 0.697335 6.77382 0.44087 7.19531 0.265625C7.61697 0.0903502 8.06949 0 8.52604 0C8.98251 3.14118e-05 9.43453 0.0903808 9.85612 0.265625C10.2775 0.440797 10.6601 0.697491 10.9824 1.02083C11.305 1.34431 11.5612 1.7286 11.7357 2.15104C11.9101 2.57341 12 3.02601 12 3.48307Z" fill="#00B8FC"/>
</g>
</svg>
