<svg preserveAspectRatio="none" overflow="visible" style="display: block;" width="20" height="20" viewBox="0 0 20 20" fill="none" xmlns="http://www.w3.org/2000/svg">
<g id="Vector">
<path d="M18 10C18 5.58172 14.4183 2 10 2C5.58172 2 2 5.58172 2 10C2 14.4183 5.58172 18 10 18C14.4183 18 18 14.4183 18 10ZM20 10C20 15.5228 15.5228 20 10 20C4.47715 20 0 15.5228 0 10C0 4.47715 4.47715 0 10 0C15.5228 0 20 4.47715 20 10Z" fill="#8E8E8F"/>
<path d="M9 9H8C7.44772 9 7 8.55228 7 8C7 7.44772 7.44772 7 8 7H10C10.5523 7 11 7.44772 11 8V13H12C12.5523 13 13 13.4477 13 14C13 14.5523 12.5523 15 12 15H8C7.44772 15 7 14.5523 7 14C7 13.4477 7.44772 13 8 13H9V9Z" fill="#8E8E8F"/>
<path d="M9 5C9 4.44772 9.44772 4 10 4C10.5523 4 11 4.44772 11 5C11 5.55228 10.5523 6 10 6C9.44772 6 9 5.55228 9 5Z" fill="#8E8E8F"/>
</g>
</svg>
