<svg preserveAspectRatio="none" width="100%" height="100%" overflow="visible" style="display: block;" viewBox="0 0 16.6667 16.6667" fill="none" xmlns="http://www.w3.org/2000/svg">
<path id=" &#226;&#134;&#179;Color" fill-rule="evenodd" clip-rule="evenodd" d="M8.33333 0C12.9358 0 16.6667 3.731 16.6667 8.33333C16.6667 12.9357 12.9358 16.6667 8.33333 16.6667C3.731 16.6667 0 12.9357 0 8.33333C0 3.731 3.731 0 8.33333 0ZM8.33333 1.66667C4.65142 1.66667 1.66667 4.65142 1.66667 8.33333C1.66667 12.0152 4.65142 15 8.33333 15C12.015 15 15 12.0152 15 8.33333C15 4.65142 12.015 1.66667 8.33333 1.66667ZM9.16667 5.5C9.765 5.5 10.25 5.015 10.25 4.41667C10.25 3.81833 9.765 3.33333 9.16667 3.33333C8.56833 3.33333 8.08333 3.81833 8.08333 4.41667C8.08333 5.015 8.56833 5.5 9.16667 5.5ZM7.84275 7.57575C7.50925 7.80133 7.04033 7.73 6.78708 7.41583C6.52542 7.09108 6.59333 6.631 6.93817 6.39783C7.57983 5.96383 8.28675 5.95217 8.86267 6.39067C9.51758 6.88925 9.65625 7.61517 9.3025 8.49592C9.17125 8.8225 9.01275 9.18433 8.76308 9.72917L8.72217 9.81842L8.68117 9.90767C8.22575 10.8972 8.1995 10.9554 8.07292 11.2573C8.04858 11.3155 8.02958 11.3499 8.01775 11.3713C8.00717 11.3905 8.00233 11.3992 8.00467 11.4051C8.00658 11.4101 8.01342 11.4131 8.02583 11.4186C8.0395 11.4248 8.06017 11.4339 8.08858 11.4521C8.139 11.4808 8.14658 11.4788 8.22792 11.4083L8.321 11.3255C8.39717 11.2591 8.46192 11.2122 8.53833 11.174C8.90075 10.9929 9.35742 11.1208 9.5655 11.4639C9.78058 11.8186 9.64725 12.2643 9.27308 12.4512C8.39617 12.8893 7.77483 12.9728 7.26342 12.6476C6.52308 12.1769 6.30475 11.5345 6.65342 10.7026C6.78883 10.3796 6.81567 10.32 7.28058 9.30975L7.32117 9.2215L7.36167 9.13325C7.60183 8.60908 7.75333 8.26333 7.87525 7.96C7.99833 7.65358 7.99783 7.56942 7.92717 7.51083C7.9005 7.53342 7.87067 7.55692 7.84275 7.57575Z" fill="var(--fill-0, #A7A7A8)"/>
</svg>
