<svg preserveAspectRatio="none" width="100%" height="100%" overflow="visible" style="display: block;" viewBox="0 0 20 20" fill="none" xmlns="http://www.w3.org/2000/svg">
<g id="Vector">
<path d="M15 6C15 5.48232 14.6067 5.05621 14.1025 5.00488L14 5H6C5.44772 5 5 5.44772 5 6V14L5.00488 14.1025C5.05621 14.6067 5.48232 15 6 15H14C14.5523 15 15 14.5523 15 14V6ZM17 14C17 15.6569 15.6569 17 14 17H6C4.39489 17 3.08421 15.7394 3.00391 14.1543L3 14V6C3 4.34315 4.34315 3 6 3H14L14.1543 3.00391C15.7394 3.08421 17 4.39489 17 6V14Z" fill="var(--fill-0, #00B6FA)"/>
<path d="M5 4V1C5 0.447715 5.44772 0 6 0C6.55228 0 7 0.447715 7 1V4C7 4.55228 6.55228 5 6 5C5.44772 5 5 4.55228 5 4Z" fill="var(--fill-0, #00B6FA)"/>
<path d="M16 9H19C19.5523 9 20 9.44772 20 10C20 10.5523 19.5523 11 19 11H16C15.4477 11 15 10.5523 15 10C15 9.44772 15.4477 9 16 9Z" fill="var(--fill-0, #00B6FA)"/>
<path d="M16 5H19C19.5523 5 20 5.44772 20 6C20 6.55228 19.5523 7 19 7H16C15.4477 7 15 6.55228 15 6C15 5.44772 15.4477 5 16 5Z" fill="var(--fill-0, #00B6FA)"/>
<path d="M1 5H4C4.55228 5 5 5.44772 5 6C5 6.55228 4.55228 7 4 7H1C0.447715 7 -2.41411e-08 6.55228 0 6C2.41411e-08 5.44772 0.447715 5 1 5Z" fill="var(--fill-0, #00B6FA)"/>
<path d="M1 9H4C4.55228 9 5 9.44772 5 10C5 10.5523 4.55228 11 4 11H1C0.447715 11 -2.41411e-08 10.5523 0 10C2.41411e-08 9.44772 0.447715 9 1 9Z" fill="var(--fill-0, #00B6FA)"/>
<path d="M5 19V16C5 15.4477 5.44772 15 6 15C6.55228 15 7 15.4477 7 16V19C7 19.5523 6.55228 20 6 20C5.44772 20 5 19.5523 5 19Z" fill="var(--fill-0, #00B6FA)"/>
<path d="M9 19V16C9 15.4477 9.44772 15 10 15C10.5523 15 11 15.4477 11 16V19C11 19.5523 10.5523 20 10 20C9.44772 20 9 19.5523 9 19Z" fill="var(--fill-0, #00B6FA)"/>
<path d="M13 4V1C13 0.447715 13.4477 0 14 0C14.5523 0 15 0.447715 15 1V4C15 4.55228 14.5523 5 14 5C13.4477 5 13 4.55228 13 4Z" fill="var(--fill-0, #00B6FA)"/>
<path d="M9 4V1C9 0.447715 9.44772 0 10 0C10.5523 0 11 0.447715 11 1V4C11 4.55228 10.5523 5 10 5C9.44772 5 9 4.55228 9 4Z" fill="var(--fill-0, #00B6FA)"/>
<path d="M16 13H19C19.5523 13 20 13.4477 20 14C20 14.5523 19.5523 15 19 15H16C15.4477 15 15 14.5523 15 14C15 13.4477 15.4477 13 16 13Z" fill="var(--fill-0, #00B6FA)"/>
<path d="M1 13H4C4.55228 13 5 13.4477 5 14C5 14.5523 4.55228 15 4 15H1C0.447715 15 -2.41411e-08 14.5523 0 14C2.41411e-08 13.4477 0.447715 13 1 13Z" fill="var(--fill-0, #00B6FA)"/>
<path d="M13 19V16C13 15.4477 13.4477 15 14 15C14.5523 15 15 15.4477 15 16V19C15 19.5523 14.5523 20 14 20C13.4477 20 13 19.5523 13 19Z" fill="var(--fill-0, #00B6FA)"/>
</g>
</svg>
