<svg preserveAspectRatio="none" width="100%" height="100%" overflow="visible" style="display: block;" viewBox="0 0 22.5137 22.5137" fill="none" xmlns="http://www.w3.org/2000/svg">
<path id="Vector" fill-rule="evenodd" clip-rule="evenodd" d="M8.01478 0.883379C7.95702 0.38604 7.53435 0 7.02151 0C6.46923 0 6.02151 0.447715 6.02151 1V3.51374L6.02315 3.54215H4.10761C3.55532 3.54215 3.10761 3.98987 3.10761 4.54215V7.0025H1L0.883379 7.00923C0.38604 7.06699 0 7.48966 0 8.0025C0 8.55478 0.447715 9.0025 1 9.0025H3.10761V11.0025H1L0.883379 11.0092C0.38604 11.067 0 11.4897 0 12.0025C0 12.5548 0.447715 13.0025 1 13.0025H3.10761V15.0025H1L0.883379 15.0092C0.38604 15.067 0 15.4897 0 16.0025C0 16.5548 0.447715 17.0025 1 17.0025H3.10761V18.5422C3.10761 19.0944 3.55532 19.5422 4.10761 19.5422H6.02151V21.5137L6.02824 21.6304C6.086 22.1277 6.50868 22.5137 7.02151 22.5137C7.5738 22.5137 8.02151 22.066 8.02151 21.5137V19.5422H10.0215V21.5137L10.0282 21.6304C10.086 22.1277 10.5087 22.5137 11.0215 22.5137C11.5738 22.5137 12.0215 22.066 12.0215 21.5137V19.5422H14.0215V21.5137L14.0282 21.6304C14.086 22.1277 14.5087 22.5137 15.0215 22.5137C15.5738 22.5137 16.0215 22.066 16.0215 21.5137V19.5422H18.1076C18.6599 19.5422 19.1076 19.0944 19.1076 18.5422V17.0025H21.5137L21.6304 16.9958C22.1277 16.938 22.5137 16.5153 22.5137 16.0025C22.5137 15.4502 22.066 15.0025 21.5137 15.0025H19.1076V13.0025H21.5137L21.6304 12.9958C22.1277 12.938 22.5137 12.5153 22.5137 12.0025C22.5137 11.4502 22.066 11.0025 21.5137 11.0025H19.1076V9.0025H21.5137L21.6304 8.99577C22.1277 8.93801 22.5137 8.51533 22.5137 8.0025C22.5137 7.45021 22.066 7.0025 21.5137 7.0025H19.1076V4.54215C19.1076 3.98987 18.6599 3.54215 18.1076 3.54215H16.0211C16.0214 3.53271 16.0215 3.52324 16.0215 3.51374V1L16.0148 0.883379C15.957 0.38604 15.5343 0 15.0215 0C14.4692 0 14.0215 0.447715 14.0215 1V3.51374L14.0232 3.54215H12.0211C12.0214 3.53271 12.0215 3.52324 12.0215 3.51374V1L12.0148 0.883379C11.957 0.38604 11.5343 0 11.0215 0C10.4692 0 10.0215 0.447715 10.0215 1V3.51374L10.0232 3.54215H8.02112C8.02138 3.53271 8.02151 3.52324 8.02151 3.51374V1L8.01478 0.883379ZM17.1074 17.542V5.54201H5.10737V17.542H17.1074Z" fill="var(--fill-0, #A7A7A8)"/>
</svg>
