<svg preserveAspectRatio="none" width="100%" height="100%" overflow="visible" style="display: block;" viewBox="0 0 24 24" fill="none" xmlns="http://www.w3.org/2000/svg">
<g id="Profile">
<path id="Vector" fill-rule="evenodd" clip-rule="evenodd" d="M19 6H5C4.44772 6 4 6.44772 4 7V17C4 17.5523 4.44772 18 5 18H19C19.5523 18 20 17.5523 20 17V7C20 6.44771 19.5523 6 19 6ZM5 4C3.34315 4 2 5.34315 2 7V17C2 18.6569 3.34315 20 5 20H19C20.6569 20 22 18.6569 22 17V7C22 5.34315 20.6569 4 19 4H5Z" fill="var(--fill-0, #8E8E8F)"/>
<path id="Vector_2" d="M5.5 14H8.7169C8.89254 14 9.05529 13.9079 9.14565 13.7572L11.5713 9.71458C11.7655 9.39091 12.2345 9.39091 12.4287 9.71458L14.8543 13.7572C14.9447 13.9079 15.1075 14 15.2831 14H18.5" stroke="var(--stroke-0, #8E8E8F)" stroke-width="2" stroke-linecap="round"/>
</g>
</svg>
