<svg preserveAspectRatio="xMidYMid meet" width="100%" height="100%" overflow="visible" style="display: block;" viewBox="0 0 20 16" fill="none" xmlns="http://www.w3.org/2000/svg">
<g id="Vector">
<path fill-rule="evenodd" clip-rule="evenodd" d="M17 2H3C2.44772 2 2 2.44772 2 3V13C2 13.5523 2.44772 14 3 14H17C17.5523 14 18 13.5523 18 13V3C18 2.44771 17.5523 2 17 2ZM3 0C1.34315 0 0 1.34315 0 3V13C0 14.6569 1.34315 16 3 16H17C18.6569 16 20 14.6569 20 13V3C20 1.34315 18.6569 0 17 0H3Z" fill="var(--fill-0, #A7A7A8)"/>
<path fill-rule="evenodd" clip-rule="evenodd" d="M4 6C4 5.44772 4.44772 5 5 5H15C15.5523 5 16 5.44772 16 6C16 6.55228 15.5523 7 15 7H5C4.44772 7 4 6.55228 4 6Z" fill="var(--fill-0, #A7A7A8)"/>
<path fill-rule="evenodd" clip-rule="evenodd" d="M4 10C4 9.44772 4.44772 9 5 9H10C10.5523 9 11 9.44772 11 10C11 10.5523 10.5523 11 10 11H5C4.44772 11 4 10.5523 4 10Z" fill="var(--fill-0, #A7A7A8)"/>
</g>
</svg>
