<svg preserveAspectRatio="none" overflow="visible" style="display: block;" width="20" height="20" viewBox="0 0 20 20" fill="none" xmlns="http://www.w3.org/2000/svg">
<g id="Vector">
<path d="M18 10C18 5.58172 14.4183 2 10 2C5.58172 2 2 5.58172 2 10C2 14.4183 5.58172 18 10 18C14.4183 18 18 14.4183 18 10ZM20 10C20 15.5228 15.5228 20 10 20C4.47715 20 0 15.5228 0 10C0 4.47715 4.47715 0 10 0C15.5228 0 20 4.47715 20 10Z" fill="#A7A7A8"/>
<path d="M9 15C9 14.4477 9.44772 14 10 14C10.5523 14 11 14.4477 11 15C11 15.5523 10.5523 16 10 16C9.44772 16 9 15.5523 9 15Z" fill="#A7A7A8"/>
<path d="M9 12V11C9 10.7348 9.10543 10.4805 9.29297 10.293L10.9482 8.6377C11.3677 8.21823 11.4153 7.55376 11.0596 7.0791C10.566 6.42101 9.56963 6.44841 9.11328 7.13281L8.83203 7.55469C8.52568 8.01422 7.90484 8.13838 7.44531 7.83203C6.98578 7.52568 6.86162 6.90484 7.16797 6.44531L7.44922 6.02344C8.671 4.19088 11.3377 4.11689 12.6592 5.87891C13.6124 7.14983 13.4857 8.92841 12.3623 10.0518L11 11.4141V12C11 12.5523 10.5523 13 10 13C9.44773 13 9.00003 12.5523 9 12Z" fill="#A7A7A8"/>
</g>
</svg>
