<svg preserveAspectRatio="none" width="100%" height="100%" overflow="visible" style="display: block;" viewBox="0 0 15.9999 15.9998" fill="none" xmlns="http://www.w3.org/2000/svg">
<path id=" &#226;&#134;&#179;Color" d="M6.5 0C10.0899 0 13 2.91015 13 6.5C13 7.93401 12.5336 9.25809 11.7471 10.333L15.707 14.293C16.0976 14.6835 16.0976 15.3165 15.707 15.707C15.3465 16.0675 14.779 16.0951 14.3867 15.79L14.293 15.707L10.333 11.7471C9.25809 12.5336 7.93401 13 6.5 13C2.91015 13 0 10.0899 0 6.5C0 2.91015 2.91015 0 6.5 0ZM6.5 2C4.01472 2 2 4.01472 2 6.5C2 8.98528 4.01472 11 6.5 11C8.98528 11 11 8.98528 11 6.5C11 4.01472 8.98528 2 6.5 2Z" fill="var(--fill-0, #A7A7A8)"/>
</svg>
